<svg width="48" height="52" viewBox="0 0 48 52" fill="none" xmlns="http://www.w3.org/2000/svg">
<g filter="url(#filter0_dd_13136_10990)">
<path d="M24 2C14.0589 2 6 10.0589 6 20C6 29.0307 12.6504 36.5081 21.3209 37.802L23.1019 41.4398C23.4676 42.1868 24.5324 42.1868 24.8981 41.4398L26.6791 37.802C35.3496 36.5081 42 29.0307 42 20C42 10.0589 33.9411 2 24 2Z" fill="white"/>
<path d="M21.7699 37.5821L21.6544 37.3462L21.3946 37.3074C12.9655 36.0496 6.5 28.7794 6.5 20C6.5 10.335 14.335 2.5 24 2.5C33.665 2.5 41.5 10.335 41.5 20C41.5 28.7794 35.0345 36.0496 26.6054 37.3074L26.3456 37.3462L26.2301 37.5821L24.4491 41.2199C24.2662 41.5935 23.7338 41.5935 23.5509 41.2199L21.7699 37.5821Z" stroke="#E6E7E7"/>
</g>
<g clip-path="url(#clip0_13136_10990)">
<path d="M18.7336 19.4609C18.6878 19.6166 18.6878 19.7906 18.6878 19.9737C18.6878 20.0287 18.6878 20.0836 18.6878 20.1385C18.6878 20.4407 18.862 20.8161 19.1645 21.1092C19.4578 21.4022 19.8061 21.567 20.0994 21.567C20.2369 21.567 20.5578 21.6037 20.5761 22.0524C20.5945 22.6933 21.3186 23.4076 21.9603 23.4259C22.2536 23.4259 22.4369 23.609 22.4461 23.902C22.4553 24.3049 22.6478 24.6437 23.0511 24.9825C23.4819 25.3305 23.977 25.4313 24.5361 25.2665C24.6003 25.2481 24.6644 25.239 24.7194 25.239C24.9119 25.239 25.0678 25.3488 25.1595 25.5594C25.297 25.8616 25.4619 26.2096 25.6544 26.5392C25.8744 26.9421 26.1953 27.2901 26.4978 27.6381C26.837 28.0227 27.2036 28.4256 27.6528 28.7094C28.2211 29.0757 28.8811 29.2223 29.6603 29.149C30.6136 29.0574 31.4386 28.6362 32.1261 27.8853C32.7586 27.1986 33.0978 26.4477 33.1528 25.5869C33.1986 24.9276 33.0886 24.3599 32.8228 23.8471C32.6394 23.4808 32.3461 23.1878 32.0895 22.9406C31.6861 22.5193 31.2736 22.1989 30.7786 21.8234C30.522 21.622 30.2195 21.4846 29.9078 21.3381C29.7703 21.274 29.6328 21.2099 29.4953 21.1367C29.2569 21.0085 29.1744 20.8253 29.2386 20.5872C29.2936 20.4041 29.2936 20.2026 29.2936 19.9829V19.8638C29.2936 19.5617 29.1103 19.1954 28.8169 18.9024C28.5328 18.6185 28.1844 18.4537 27.8911 18.4537H27.882C27.7353 18.4537 27.6161 18.4079 27.5336 18.3163C27.4786 18.2522 27.4053 18.1515 27.4145 17.9683C27.4236 17.6936 27.2495 17.3365 26.9653 17.0435C26.672 16.7505 26.3145 16.5765 26.0395 16.5856C25.7645 16.5856 25.572 16.4208 25.5628 16.1461C25.5353 15.6058 25.2694 15.2029 24.7194 14.8824C24.3711 14.6718 23.9953 14.6261 23.5644 14.736C23.4269 14.7726 22.987 14.8824 22.8036 14.3513C22.7028 14.0583 22.5653 13.7836 22.4095 13.5363C21.9878 12.8862 21.4653 12.2636 20.8511 11.6867C20.3103 11.1739 19.6961 10.8992 18.9811 10.8443C18.2111 10.7893 17.5053 10.9541 16.8178 11.357C15.9928 11.8424 15.4061 12.5382 15.0669 13.4356C14.7461 14.2964 14.7553 15.1571 15.0944 15.9996C15.2319 16.3292 15.4611 16.6039 15.672 16.8237C16.6436 17.8493 17.4961 18.472 18.4495 18.8383C18.7245 18.9481 18.8345 19.1679 18.7428 19.4426L18.7336 19.4609ZM28.6611 22.0706C29.3578 22.2904 29.9995 22.6658 30.687 23.2702C31.0445 23.5815 31.4478 23.9387 31.7503 24.3782C32.3186 25.2115 32.0711 26.3286 31.5395 27.0063C31.072 27.6015 30.4945 27.9494 29.8253 28.0502C29.7153 28.0685 29.6053 28.0776 29.4953 28.0776C28.8994 28.0776 28.3586 27.8395 27.8911 27.3634C27.4328 26.8964 26.837 26.2646 26.397 25.4954C26.2778 25.2939 26.2045 25.0833 26.1403 24.8727C26.1128 24.7811 26.0761 24.6895 26.0486 24.598C25.9478 24.3324 26.1311 24.1676 26.1861 24.1127L26.2044 24.0943C26.4336 23.8654 26.672 23.6273 26.9011 23.3984L27.4145 22.8856C27.6345 22.6659 27.8636 22.4369 28.0836 22.208C28.2945 21.9882 28.5236 22.0249 28.6703 22.0706H28.6611ZM27.4145 19.4975C27.6345 19.4975 27.8361 19.5891 27.992 19.754C28.3036 20.0836 28.2945 20.5506 27.9736 20.8802C27.607 21.2465 27.2403 21.622 26.8736 21.9883L25.9753 22.8856C25.6086 23.2519 25.242 23.6182 24.8753 23.9753C24.7103 24.1401 24.5086 24.2134 24.3161 24.2134C24.1236 24.2134 23.9128 24.131 23.7478 23.9661C23.427 23.6456 23.4178 23.1512 23.7386 22.8307C24.7378 21.8234 25.7828 20.7795 26.8369 19.7356C26.9928 19.58 27.2036 19.4884 27.4236 19.4975H27.4145ZM24.7561 18.069C24.8661 17.95 24.9853 17.8676 25.0953 17.7852C25.4436 17.5654 25.8195 17.602 26.1036 17.8859C26.3878 18.1698 26.4245 18.5635 26.1953 18.8932C26.1128 19.0122 26.0303 19.1221 25.9386 19.2045C25.5995 19.5525 25.2511 19.9004 24.9028 20.2392L24.2061 20.9352C23.867 21.274 23.5369 21.6037 23.1978 21.9425C23.1153 22.0249 23.0053 22.1073 22.8861 22.1988C22.7394 22.2996 22.5836 22.3454 22.4278 22.3454C22.2261 22.3454 22.0336 22.263 21.8778 22.0981C21.5936 21.8143 21.557 21.4388 21.777 21.0908C21.8503 20.9718 21.9419 20.8619 22.0519 20.752C22.9503 19.8547 23.8486 18.9573 24.7561 18.0508V18.069ZM23.1245 16.0179C23.4361 15.7157 23.8669 15.6974 24.1969 15.9813C24.5269 16.2652 24.582 16.723 24.3345 17.071C24.2886 17.1259 24.2428 17.1808 24.2061 17.2175L23.2986 18.124C22.602 18.8199 21.9053 19.5159 21.2178 20.2118C21.0253 20.4041 20.8144 20.4957 20.5944 20.4957C20.4936 20.4957 20.3836 20.4682 20.2736 20.4224C19.9619 20.285 19.7786 20.0195 19.7786 19.6807C19.7786 19.4609 19.8611 19.2686 20.0261 19.1038C20.4111 18.7284 20.7869 18.3438 21.1628 17.9683L22.0153 17.1167C22.382 16.7505 22.7578 16.375 23.1245 16.0087V16.0179ZM16.2403 15.6333C15.6628 14.8 15.9103 13.6829 16.4419 13.0053C16.9553 12.3551 17.597 11.998 18.3486 11.943C18.9811 11.8973 19.5494 12.117 20.0719 12.6298C20.7411 13.28 21.2178 13.8752 21.5936 14.5161C21.7128 14.7176 21.7769 14.9282 21.8503 15.1388C21.8778 15.2304 21.9144 15.322 21.9419 15.4136C22.0061 15.5875 21.9603 15.7523 21.8045 15.8989L21.7861 15.9172C21.557 16.1461 21.3278 16.3842 21.0895 16.6131L20.5761 17.1259C20.347 17.3548 20.1178 17.5838 19.8978 17.8127C19.7878 17.9317 19.6595 17.9867 19.522 17.9867C19.467 17.9867 19.3936 17.9775 19.3294 17.9592C18.6236 17.7394 17.982 17.3548 17.3036 16.7596C16.9278 16.4208 16.5336 16.082 16.2403 15.6517V15.6333Z" fill="#141515"/>
</g>
<defs>
<filter id="filter0_dd_13136_10990" x="0" y="0" width="48" height="52" filterUnits="userSpaceOnUse" color-interpolation-filters="sRGB">
<feFlood flood-opacity="0" result="BackgroundImageFix"/>
<feColorMatrix in="SourceAlpha" type="matrix" values="0 0 0 0 0 0 0 0 0 0 0 0 0 0 0 0 0 0 127 0" result="hardAlpha"/>
<feMorphology radius="2" operator="erode" in="SourceAlpha" result="effect1_dropShadow_13136_10990"/>
<feOffset dy="2"/>
<feGaussianBlur stdDeviation="2"/>
<feComposite in2="hardAlpha" operator="out"/>
<feColorMatrix type="matrix" values="0 0 0 0 0 0 0 0 0 0 0 0 0 0 0 0 0 0 0.06 0"/>
<feBlend mode="normal" in2="BackgroundImageFix" result="effect1_dropShadow_13136_10990"/>
<feColorMatrix in="SourceAlpha" type="matrix" values="0 0 0 0 0 0 0 0 0 0 0 0 0 0 0 0 0 0 127 0" result="hardAlpha"/>
<feMorphology radius="2" operator="erode" in="SourceAlpha" result="effect2_dropShadow_13136_10990"/>
<feOffset dy="4"/>
<feGaussianBlur stdDeviation="4"/>
<feComposite in2="hardAlpha" operator="out"/>
<feColorMatrix type="matrix" values="0 0 0 0 0 0 0 0 0 0 0 0 0 0 0 0 0 0 0.1 0"/>
<feBlend mode="normal" in2="effect1_dropShadow_13136_10990" result="effect2_dropShadow_13136_10990"/>
<feBlend mode="normal" in="SourceGraphic" in2="effect2_dropShadow_13136_10990" result="shape"/>
</filter>
<clipPath id="clip0_13136_10990">
<rect width="20" height="20" fill="white" transform="translate(14 10)"/>
</clipPath>
</defs>
</svg>
