<svg width="48" height="52" viewBox="0 0 48 52" fill="none" xmlns="http://www.w3.org/2000/svg">
<g filter="url(#filter0_dd_13136_10998)">
<path d="M24 2C14.0589 2 6 10.0589 6 20C6 29.0307 12.6504 36.5081 21.3209 37.802L23.1019 41.4398C23.4676 42.1868 24.5324 42.1868 24.8981 41.4398L26.6791 37.802C35.3496 36.5081 42 29.0307 42 20C42 10.0589 33.9411 2 24 2Z" fill="white"/>
<path d="M21.7699 37.5821L21.6544 37.3462L21.3946 37.3074C12.9655 36.0496 6.5 28.7794 6.5 20C6.5 10.335 14.335 2.5 24 2.5C33.665 2.5 41.5 10.335 41.5 20C41.5 28.7794 35.0345 36.0496 26.6054 37.3074L26.3456 37.3462L26.2301 37.5821L24.4491 41.2199C24.2662 41.5935 23.7338 41.5935 23.5509 41.2199L21.7699 37.5821Z" stroke="#E6E7E7"/>
</g>
<path d="M21.2337 18.8993C21.292 18.8077 21.342 18.7243 21.4003 18.641C21.467 18.5493 21.5253 18.466 21.592 18.3827C21.6503 18.2993 21.7087 18.2243 21.7587 18.1577C21.8253 18.0827 21.8837 18.016 21.9337 17.9493C22.0837 17.791 22.217 17.666 22.317 17.6077L22.3753 17.5743L22.442 17.6077C22.542 17.666 22.6753 17.791 22.8253 17.9493C22.8753 18.016 22.9337 18.0827 22.992 18.1493C23.0503 18.2243 23.1087 18.2993 23.167 18.3827C23.2337 18.466 23.3003 18.5577 23.3587 18.6494C23.417 18.7244 23.467 18.8077 23.517 18.8827C23.5837 18.991 23.6587 19.1077 23.717 19.216C23.742 19.2577 23.767 19.2994 23.792 19.3327L23.9503 19.6243H25.117C27.3087 19.6243 29.092 17.841 29.092 15.6493C29.092 13.4577 27.3087 11.666 25.117 11.666H19.642C17.4503 11.666 15.667 13.4493 15.667 15.6493C15.667 17.8493 17.4503 19.6243 19.642 19.6243H20.8087L20.967 19.3327C20.967 19.3327 21.017 19.2493 21.042 19.2077C21.1087 19.0993 21.167 18.9993 21.2337 18.8993ZM20.9337 17.0243C20.8753 17.091 20.817 17.166 20.7587 17.2327C20.667 17.3327 20.5837 17.4327 20.492 17.541C20.4503 17.5993 20.417 17.6493 20.3837 17.7077C20.2837 17.8493 20.1837 17.9827 20.1003 18.1243C20.0753 18.166 20.042 18.216 20.0087 18.2577H19.642C18.2087 18.2577 17.0337 17.0827 17.0337 15.6493C17.0337 14.216 18.2087 13.041 19.642 13.041H25.117C26.5503 13.041 27.717 14.2077 27.717 15.6493C27.717 17.091 26.5503 18.2577 25.117 18.2577H24.742C24.742 18.2577 24.7003 18.191 24.6753 18.1577C24.617 18.0577 24.542 17.9577 24.4753 17.8577C24.442 17.8077 24.4087 17.7493 24.3753 17.6993C24.3337 17.641 24.3003 17.591 24.267 17.541C24.1503 17.391 24.0337 17.2577 23.9087 17.1243C23.8753 17.091 23.8503 17.0493 23.817 17.016C23.792 16.991 23.7753 16.9577 23.7503 16.9327L23.7003 16.8827C23.7003 16.8827 23.667 16.8576 23.6503 16.841C23.5587 16.7576 23.4753 16.6827 23.3837 16.616C23.3753 16.6077 23.367 16.5993 23.3503 16.591C23.342 16.591 23.3337 16.5744 23.3253 16.566C23.2337 16.5077 23.1503 16.4493 23.0587 16.3993C23.042 16.391 23.0253 16.3827 23.0087 16.3743C23.0003 16.3743 22.9837 16.366 22.9753 16.3577C22.892 16.316 22.8087 16.2827 22.7253 16.2577C22.7003 16.2577 22.6837 16.2577 22.6587 16.2493C22.6503 16.2493 22.642 16.2493 22.6337 16.2493C22.5503 16.2327 22.467 16.2077 22.3753 16.2077C22.292 16.2077 22.2087 16.2327 22.1253 16.2493C22.1253 16.2493 22.117 16.2493 22.1087 16.2493C22.0837 16.2493 22.0587 16.2493 22.0337 16.266C21.9503 16.291 21.867 16.3243 21.7837 16.366C21.7503 16.3826 21.7253 16.391 21.692 16.4077C21.6087 16.4577 21.517 16.516 21.4337 16.5743C21.417 16.591 21.4003 16.5994 21.3753 16.616C21.3753 16.616 21.3753 16.616 21.367 16.6244C21.2753 16.691 21.1837 16.7743 21.1003 16.8577C21.0837 16.866 21.0753 16.8826 21.067 16.891C21.042 16.9076 21.0253 16.9243 21.0087 16.941C20.9837 16.966 20.9587 16.9994 20.9337 17.0327V17.0243Z" fill="#141515"/>
<path d="M21.8173 21.241V22.8243C21.8173 25.5826 24.0673 27.8327 26.8256 27.8327C29.584 27.8327 31.8256 25.5826 31.8256 22.8243V11.666H30.709V22.8243C30.709 24.966 28.9673 26.716 26.8256 26.716C24.684 26.716 22.934 24.966 22.934 22.8243V21.241H21.8173Z" fill="#141515"/>
<defs>
<filter id="filter0_dd_13136_10998" x="0" y="0" width="48" height="52" filterUnits="userSpaceOnUse" color-interpolation-filters="sRGB">
<feFlood flood-opacity="0" result="BackgroundImageFix"/>
<feColorMatrix in="SourceAlpha" type="matrix" values="0 0 0 0 0 0 0 0 0 0 0 0 0 0 0 0 0 0 127 0" result="hardAlpha"/>
<feMorphology radius="2" operator="erode" in="SourceAlpha" result="effect1_dropShadow_13136_10998"/>
<feOffset dy="2"/>
<feGaussianBlur stdDeviation="2"/>
<feComposite in2="hardAlpha" operator="out"/>
<feColorMatrix type="matrix" values="0 0 0 0 0 0 0 0 0 0 0 0 0 0 0 0 0 0 0.06 0"/>
<feBlend mode="normal" in2="BackgroundImageFix" result="effect1_dropShadow_13136_10998"/>
<feColorMatrix in="SourceAlpha" type="matrix" values="0 0 0 0 0 0 0 0 0 0 0 0 0 0 0 0 0 0 127 0" result="hardAlpha"/>
<feMorphology radius="2" operator="erode" in="SourceAlpha" result="effect2_dropShadow_13136_10998"/>
<feOffset dy="4"/>
<feGaussianBlur stdDeviation="4"/>
<feComposite in2="hardAlpha" operator="out"/>
<feColorMatrix type="matrix" values="0 0 0 0 0 0 0 0 0 0 0 0 0 0 0 0 0 0 0.1 0"/>
<feBlend mode="normal" in2="effect1_dropShadow_13136_10998" result="effect2_dropShadow_13136_10998"/>
<feBlend mode="normal" in="SourceGraphic" in2="effect2_dropShadow_13136_10998" result="shape"/>
</filter>
</defs>
</svg>
