<svg width="48" height="52" viewBox="0 0 48 52" fill="none" xmlns="http://www.w3.org/2000/svg">
<g filter="url(#filter0_dd_13136_10991)">
<path d="M24 2C14.0589 2 6 10.0589 6 20C6 29.0307 12.6504 36.5081 21.3209 37.802L23.1019 41.4398C23.4676 42.1868 24.5324 42.1868 24.8981 41.4398L26.6791 37.802C35.3496 36.5081 42 29.0307 42 20C42 10.0589 33.9411 2 24 2Z" fill="white"/>
<path d="M21.7699 37.5821L21.6544 37.3462L21.3946 37.3074C12.9655 36.0496 6.5 28.7794 6.5 20C6.5 10.335 14.335 2.5 24 2.5C33.665 2.5 41.5 10.335 41.5 20C41.5 28.7794 35.0345 36.0496 26.6054 37.3074L26.3456 37.3462L26.2301 37.5821L24.4491 41.2199C24.2662 41.5935 23.7338 41.5935 23.5509 41.2199L21.7699 37.5821Z" stroke="#E6E7E7"/>
</g>
<path d="M21.6501 25.1338L20.4917 24.3838L19.7334 28.8755C19.7334 28.8755 19.7334 28.9255 19.7501 28.9338C19.7667 28.9421 19.7751 28.9588 19.8084 28.9588H21.0084C21.0084 28.9588 21.0751 28.9338 21.0834 28.9005L21.6917 25.2088C21.6917 25.2088 21.6917 25.1505 21.6584 25.1338H21.6501Z" fill="#141515"/>
<path d="M25.9497 13.3257C26.0914 12.9924 26.1247 12.634 26.0497 12.284C25.983 11.934 25.808 11.609 25.558 11.359C25.308 11.109 24.983 10.934 24.633 10.8674C24.5164 10.8424 24.3997 10.834 24.283 10.834C24.0497 10.834 23.8164 10.884 23.5914 10.9757C23.258 11.109 22.983 11.3423 22.783 11.6423C22.583 11.9423 22.4747 12.284 22.4747 12.6424C22.4747 13.1174 22.6664 13.584 23.008 13.9173C23.3414 14.2507 23.808 14.4507 24.283 14.4507C24.6414 14.4507 24.9914 14.3423 25.2914 14.1423C25.5914 13.9423 25.8164 13.659 25.958 13.334L25.9497 13.3257Z" fill="#141515"/>
<path d="M19.3 22.8421H19.3417C19.7917 22.8421 20.225 22.7171 20.6083 22.4838C20.7333 22.4088 20.9 22.4338 20.9917 22.5421C21.1167 22.6838 21.2667 22.8171 21.4333 22.9254L24.25 24.7504C24.3333 24.8004 24.375 24.8921 24.375 24.9838V28.8754C24.375 28.8754 24.4083 28.9504 24.45 28.9504H25.625C25.625 28.9504 25.7 28.9171 25.7 28.8754V24.1504C25.7 24.1504 25.6833 24.1004 25.6667 24.0921L22.15 21.8088C22 21.7171 21.8917 21.5754 21.825 21.4171C21.7583 21.2587 21.7417 21.0838 21.775 20.9088L22.55 16.9504C22.575 16.8171 22.6917 16.7254 22.825 16.7254H23.9667C24.05 16.7337 24.1333 16.7754 24.1833 16.8337C24.2333 16.9004 24.2583 16.9838 24.2417 17.0671L23.5583 20.5754C23.5583 20.5754 23.5583 20.6338 23.5917 20.6504L24.65 21.3421C24.65 21.3421 24.7083 21.3504 24.7167 21.3421C24.725 21.3421 24.75 21.3254 24.7583 21.2921L25.2083 18.9838C25.2333 18.8588 25.325 18.7754 25.45 18.7587C25.4667 18.7587 25.475 18.7587 25.4917 18.7587C25.6 18.7587 25.6917 18.8171 25.7417 18.9171L26.15 19.7338C26.15 19.7338 26.1917 19.7754 26.2167 19.7754H28.6917C28.85 19.7754 28.975 19.9004 28.975 20.0587V28.8671C28.975 28.8671 29.0083 28.9421 29.05 28.9421H30.225C30.225 28.9421 30.3 28.9087 30.3 28.8671V16.2338C30.3 16.2338 30.2667 16.1587 30.225 16.1587H29.05C29.05 16.1587 28.975 16.1921 28.975 16.2338V18.1671C28.975 18.3254 28.85 18.4504 28.6917 18.4504H27.1583C27.05 18.4504 26.95 18.3921 26.9083 18.2921L26.0583 16.6004C25.875 16.2338 25.6 15.9338 25.25 15.7171C24.9083 15.5088 24.5083 15.3921 24.1083 15.3921H21.9333C19.025 15.3921 16.75 17.3588 16.75 19.8754C16.75 21.9004 18.075 22.8254 19.3 22.8254V22.8421ZM20.8167 16.8671C20.9083 16.8421 21 16.8671 21.0667 16.9337C21.1333 17.0004 21.1667 17.0921 21.15 17.1921L20.5 20.5088C20.45 20.7921 20.3 21.0421 20.075 21.2338C19.8583 21.4171 19.5833 21.5254 19.2917 21.5254C19.0833 21.5254 18.0583 21.4504 18.0583 19.8921C18.0583 18.4671 19.1333 17.2754 20.8083 16.8671H20.8167Z" fill="#141515"/>
<defs>
<filter id="filter0_dd_13136_10991" x="0" y="0" width="48" height="52" filterUnits="userSpaceOnUse" color-interpolation-filters="sRGB">
<feFlood flood-opacity="0" result="BackgroundImageFix"/>
<feColorMatrix in="SourceAlpha" type="matrix" values="0 0 0 0 0 0 0 0 0 0 0 0 0 0 0 0 0 0 127 0" result="hardAlpha"/>
<feMorphology radius="2" operator="erode" in="SourceAlpha" result="effect1_dropShadow_13136_10991"/>
<feOffset dy="2"/>
<feGaussianBlur stdDeviation="2"/>
<feComposite in2="hardAlpha" operator="out"/>
<feColorMatrix type="matrix" values="0 0 0 0 0 0 0 0 0 0 0 0 0 0 0 0 0 0 0.06 0"/>
<feBlend mode="normal" in2="BackgroundImageFix" result="effect1_dropShadow_13136_10991"/>
<feColorMatrix in="SourceAlpha" type="matrix" values="0 0 0 0 0 0 0 0 0 0 0 0 0 0 0 0 0 0 127 0" result="hardAlpha"/>
<feMorphology radius="2" operator="erode" in="SourceAlpha" result="effect2_dropShadow_13136_10991"/>
<feOffset dy="4"/>
<feGaussianBlur stdDeviation="4"/>
<feComposite in2="hardAlpha" operator="out"/>
<feColorMatrix type="matrix" values="0 0 0 0 0 0 0 0 0 0 0 0 0 0 0 0 0 0 0.1 0"/>
<feBlend mode="normal" in2="effect1_dropShadow_13136_10991" result="effect2_dropShadow_13136_10991"/>
<feBlend mode="normal" in="SourceGraphic" in2="effect2_dropShadow_13136_10991" result="shape"/>
</filter>
</defs>
</svg>
