<svg width="48" height="52" viewBox="0 0 48 52" fill="none" xmlns="http://www.w3.org/2000/svg">
<g filter="url(#filter0_dd_13136_10994)">
<path d="M24 2C14.0589 2 6 10.0589 6 20C6 29.0307 12.6504 36.5081 21.3209 37.802L23.1019 41.4398C23.4676 42.1868 24.5324 42.1868 24.8981 41.4398L26.6791 37.802C35.3496 36.5081 42 29.0307 42 20C42 10.0589 33.9411 2 24 2Z" fill="white"/>
<path d="M21.7699 37.5821L21.6544 37.3462L21.3946 37.3074C12.9655 36.0496 6.5 28.7794 6.5 20C6.5 10.335 14.335 2.5 24 2.5C33.665 2.5 41.5 10.335 41.5 20C41.5 28.7794 35.0345 36.0496 26.6054 37.3074L26.3456 37.3462L26.2301 37.5821L24.4491 41.2199C24.2662 41.5935 23.7338 41.5935 23.5509 41.2199L21.7699 37.5821Z" stroke="#E6E7E7"/>
</g>
<path d="M31.3337 27.3649C31.792 26.9065 32.067 26.2982 32.1087 25.6482C32.1087 25.6232 32.1003 25.6065 32.092 25.5982C32.0753 25.5815 32.0587 25.5732 32.0337 25.5732H31.017C30.967 25.5732 30.9337 25.6148 30.9253 25.6648C30.8837 25.9898 30.7337 26.2898 30.5003 26.5232C30.2253 26.7982 29.842 26.9565 29.442 26.9565H26.8503C26.692 26.9565 26.5587 26.8232 26.5587 26.6648V24.2565C26.5587 24.0982 26.692 23.9648 26.8503 23.9648H30.6503C30.692 23.9648 30.7337 23.9315 30.7337 23.8815V21.3565C30.7337 20.4232 30.4003 19.5065 29.8087 18.7815C29.217 18.0565 28.3837 17.5565 27.467 17.3731L24.7753 16.8315C24.467 16.7732 24.192 16.6148 23.9753 16.3898C23.7587 16.1565 23.6253 15.8732 23.5837 15.5648L23.3003 13.3648C23.2587 13.0898 23.167 12.8315 23.017 12.5982C22.867 12.3648 22.6753 12.1649 22.4503 12.0065C22.2253 11.8482 21.967 11.7481 21.692 11.6981C21.4253 11.6481 21.142 11.6565 20.8753 11.7232L15.7253 13.1815C15.7253 13.1815 15.667 13.2232 15.667 13.2565V23.8732C15.667 23.9149 15.7003 23.9565 15.7503 23.9565H18.8503C19.0087 23.9565 19.142 24.0898 19.142 24.2481V26.6565C19.142 26.8148 19.0087 26.9482 18.8503 26.9482H15.7503C15.7087 26.9482 15.667 26.9815 15.667 27.0315V28.0482C15.667 28.0899 15.7003 28.1315 15.7503 28.1315H29.4587C30.1753 28.1315 30.842 27.8565 31.3503 27.3482L31.3337 27.3649ZM17.1253 22.8065C16.967 22.8065 16.8337 22.6732 16.8337 22.5148V14.3399C16.8337 14.2149 16.917 14.0982 17.042 14.0648L21.1503 12.8982C21.2587 12.8732 21.3753 12.8732 21.4837 12.8982C21.592 12.9232 21.692 12.9648 21.7837 13.0232C21.8753 13.0815 21.9503 13.1649 22.0087 13.2565C22.067 13.3482 22.1087 13.4482 22.1253 13.5649L22.2003 14.1565C22.2087 14.2398 22.1837 14.3232 22.1337 14.3815C22.0753 14.4482 22.0003 14.4815 21.917 14.4815H20.6003C20.5587 14.4815 20.517 14.5148 20.517 14.5648V15.5815C20.517 15.6232 20.5503 15.6648 20.6003 15.6648H22.1503C22.292 15.6648 22.4087 15.7649 22.442 15.9065C22.4587 16.0065 22.492 16.1149 22.5253 16.2232C22.567 16.3565 22.5253 16.4982 22.4003 16.5732L21.067 17.3815C21.067 17.3815 21.0337 17.4148 21.0337 17.4315C21.0337 17.4565 21.0337 17.4732 21.042 17.4898L21.5753 18.3648C21.5753 18.3648 21.6503 18.4148 21.6837 18.3898L23.1253 17.5149C23.2253 17.4482 23.3587 17.4565 23.4587 17.5315C23.5503 17.5981 23.642 17.6648 23.7503 17.7232C23.8253 17.7649 23.8753 17.8315 23.9003 17.9065C23.9253 17.9815 23.9087 18.0648 23.8753 18.1315L23.1337 19.3982C23.1337 19.3982 23.117 19.4398 23.1253 19.4565C23.1253 19.4731 23.142 19.4982 23.1587 19.5065L24.0337 20.0232C24.0337 20.0232 24.0753 20.0398 24.092 20.0315C24.117 20.0315 24.1337 20.0148 24.142 19.9982L25.117 18.3398C25.1837 18.2315 25.3003 18.1815 25.4253 18.1982L27.2337 18.5565C27.8837 18.6898 28.4753 19.0399 28.9003 19.5565C29.3253 20.0732 29.5503 20.7232 29.5587 21.3815V22.5148C29.5587 22.6732 29.4253 22.8065 29.267 22.8065H17.1253ZM25.3753 26.6815C25.3753 26.8398 25.242 26.9732 25.0837 26.9732H20.592C20.4337 26.9732 20.3003 26.8398 20.3003 26.6815V24.2732C20.3003 24.1148 20.4337 23.9815 20.592 23.9815H25.0837C25.242 23.9815 25.3753 24.1148 25.3753 24.2732V26.6815Z" fill="#141515"/>
<defs>
<filter id="filter0_dd_13136_10994" x="0" y="0" width="48" height="52" filterUnits="userSpaceOnUse" color-interpolation-filters="sRGB">
<feFlood flood-opacity="0" result="BackgroundImageFix"/>
<feColorMatrix in="SourceAlpha" type="matrix" values="0 0 0 0 0 0 0 0 0 0 0 0 0 0 0 0 0 0 127 0" result="hardAlpha"/>
<feMorphology radius="2" operator="erode" in="SourceAlpha" result="effect1_dropShadow_13136_10994"/>
<feOffset dy="2"/>
<feGaussianBlur stdDeviation="2"/>
<feComposite in2="hardAlpha" operator="out"/>
<feColorMatrix type="matrix" values="0 0 0 0 0 0 0 0 0 0 0 0 0 0 0 0 0 0 0.06 0"/>
<feBlend mode="normal" in2="BackgroundImageFix" result="effect1_dropShadow_13136_10994"/>
<feColorMatrix in="SourceAlpha" type="matrix" values="0 0 0 0 0 0 0 0 0 0 0 0 0 0 0 0 0 0 127 0" result="hardAlpha"/>
<feMorphology radius="2" operator="erode" in="SourceAlpha" result="effect2_dropShadow_13136_10994"/>
<feOffset dy="4"/>
<feGaussianBlur stdDeviation="4"/>
<feComposite in2="hardAlpha" operator="out"/>
<feColorMatrix type="matrix" values="0 0 0 0 0 0 0 0 0 0 0 0 0 0 0 0 0 0 0.1 0"/>
<feBlend mode="normal" in2="effect1_dropShadow_13136_10994" result="effect2_dropShadow_13136_10994"/>
<feBlend mode="normal" in="SourceGraphic" in2="effect2_dropShadow_13136_10994" result="shape"/>
</filter>
</defs>
</svg>
