<svg width="48" height="52" viewBox="0 0 48 52" fill="none" xmlns="http://www.w3.org/2000/svg">
<g filter="url(#filter0_dd_13136_10993)">
<path d="M24 2C14.0589 2 6 10.0589 6 20C6 29.0307 12.6504 36.5081 21.3209 37.802L23.1019 41.4398C23.4676 42.1868 24.5324 42.1868 24.8981 41.4398L26.6791 37.802C35.3496 36.5081 42 29.0307 42 20C42 10.0589 33.9411 2 24 2Z" fill="white"/>
<path d="M21.7699 37.5821L21.6544 37.3462L21.3946 37.3074C12.9655 36.0496 6.5 28.7794 6.5 20C6.5 10.335 14.335 2.5 24 2.5C33.665 2.5 41.5 10.335 41.5 20C41.5 28.7794 35.0345 36.0496 26.6054 37.3074L26.3456 37.3462L26.2301 37.5821L24.4491 41.2199C24.2662 41.5935 23.7338 41.5935 23.5509 41.2199L21.7699 37.5821Z" stroke="#E6E7E7"/>
</g>
<path d="M18.9503 28.1243L19.2753 27.9993C22.6587 26.8077 25.792 24.841 28.3337 22.316C31.267 19.3827 31.942 15.4077 32.092 13.841C32.117 13.5493 32.092 13.2576 31.992 12.9826C31.892 12.7076 31.7337 12.4576 31.5337 12.2493C31.3253 12.041 31.0753 11.8826 30.8087 11.7826C30.6003 11.7076 30.3753 11.666 30.1503 11.666C30.0837 11.666 30.017 11.666 29.9587 11.6743C28.392 11.8243 24.4253 12.4993 21.492 15.441C18.9587 17.9743 16.992 21.1076 15.8003 24.491L15.667 24.816C15.667 24.816 15.667 24.866 15.6837 24.8743L18.9087 28.1077C18.9087 28.1077 18.9503 28.1327 18.9753 28.116L18.9503 28.1243ZM18.6503 26.0827C18.6503 26.016 18.6753 25.941 18.7253 25.8993L26.942 17.6743C26.942 17.6743 26.9587 17.6493 26.9587 17.6327C26.9587 17.616 26.9587 17.5993 26.942 17.591L26.192 16.8326C26.192 16.8326 26.1337 16.8076 26.1087 16.8326L17.892 25.0576C17.792 25.1576 17.617 25.1576 17.517 25.0576L17.1503 24.691C17.0753 24.616 17.0503 24.5077 17.092 24.4077C18.242 21.3327 20.0003 18.5993 22.317 16.2743C24.9837 13.6077 28.6253 12.991 30.067 12.8577C30.1837 12.8493 30.3003 12.8577 30.4087 12.8993C30.517 12.941 30.617 12.9993 30.7003 13.0826C30.7837 13.166 30.8503 13.266 30.8837 13.3743C30.9253 13.4827 30.942 13.5993 30.9253 13.716C30.7837 15.166 30.1587 18.816 27.5003 21.466C25.217 23.7576 22.4003 25.566 19.367 26.6826C19.3337 26.691 19.3087 26.6993 19.2753 26.6993C19.2087 26.6993 19.1337 26.6743 19.0837 26.6243L18.7253 26.266C18.6753 26.216 18.6503 26.1493 18.6503 26.0743V26.0827Z" fill="#141515"/>
<defs>
<filter id="filter0_dd_13136_10993" x="0" y="0" width="48" height="52" filterUnits="userSpaceOnUse" color-interpolation-filters="sRGB">
<feFlood flood-opacity="0" result="BackgroundImageFix"/>
<feColorMatrix in="SourceAlpha" type="matrix" values="0 0 0 0 0 0 0 0 0 0 0 0 0 0 0 0 0 0 127 0" result="hardAlpha"/>
<feMorphology radius="2" operator="erode" in="SourceAlpha" result="effect1_dropShadow_13136_10993"/>
<feOffset dy="2"/>
<feGaussianBlur stdDeviation="2"/>
<feComposite in2="hardAlpha" operator="out"/>
<feColorMatrix type="matrix" values="0 0 0 0 0 0 0 0 0 0 0 0 0 0 0 0 0 0 0.06 0"/>
<feBlend mode="normal" in2="BackgroundImageFix" result="effect1_dropShadow_13136_10993"/>
<feColorMatrix in="SourceAlpha" type="matrix" values="0 0 0 0 0 0 0 0 0 0 0 0 0 0 0 0 0 0 127 0" result="hardAlpha"/>
<feMorphology radius="2" operator="erode" in="SourceAlpha" result="effect2_dropShadow_13136_10993"/>
<feOffset dy="4"/>
<feGaussianBlur stdDeviation="4"/>
<feComposite in2="hardAlpha" operator="out"/>
<feColorMatrix type="matrix" values="0 0 0 0 0 0 0 0 0 0 0 0 0 0 0 0 0 0 0.1 0"/>
<feBlend mode="normal" in2="effect1_dropShadow_13136_10993" result="effect2_dropShadow_13136_10993"/>
<feBlend mode="normal" in="SourceGraphic" in2="effect2_dropShadow_13136_10993" result="shape"/>
</filter>
</defs>
</svg>
