<svg width="48" height="52" viewBox="0 0 48 52" fill="none" xmlns="http://www.w3.org/2000/svg">
<g filter="url(#filter0_dd_13136_10997)">
<path d="M24 2C14.0589 2 6 10.0589 6 20C6 29.0307 12.6504 36.5081 21.3209 37.802L23.1019 41.4398C23.4676 42.1868 24.5324 42.1868 24.8981 41.4398L26.6791 37.802C35.3496 36.5081 42 29.0307 42 20C42 10.0589 33.9411 2 24 2Z" fill="white"/>
<path d="M21.7699 37.5821L21.6544 37.3462L21.3946 37.3074C12.9655 36.0496 6.5 28.7794 6.5 20C6.5 10.335 14.335 2.5 24 2.5C33.665 2.5 41.5 10.335 41.5 20C41.5 28.7794 35.0345 36.0496 26.6054 37.3074L26.3456 37.3462L26.2301 37.5821L24.4491 41.2199C24.2662 41.5935 23.7338 41.5935 23.5509 41.2199L21.7699 37.5821Z" stroke="#E6E7E7"/>
</g>
<path d="M29.7356 16.5488C30.6607 16.5488 31.4025 15.7987 31.4025 14.8819C31.4025 13.9651 30.6524 13.215 29.7356 13.215C28.8188 13.215 28.0687 13.9651 28.0687 14.8819C28.0687 15.7987 28.8188 16.5488 29.7356 16.5488Z" fill="#141515"/>
<path d="M19.2922 15.9651L20.3257 16.9986L23.0677 14.2565L24.9596 16.1484L23.3594 18.1487C23.5345 18.1237 23.7178 18.1154 23.9012 18.1154C25.268 18.1154 25.9931 18.6905 26.5682 19.1489C27.0599 19.5406 27.36 19.7823 28.0684 19.7823C28.7769 19.7823 29.0936 19.5322 29.5686 19.1572C29.652 19.0905 29.7353 19.0238 29.827 18.9572L23.5844 12.7146C23.5178 12.6479 23.4344 12.5896 23.3511 12.5563C23.1677 12.4812 22.976 12.4812 22.7927 12.5563C22.701 12.5896 22.626 12.6479 22.5593 12.7146L19.3005 15.9734L19.2922 15.9651Z" fill="#141515"/>
<path d="M19.7257 27.275C21.0259 27.275 21.7093 26.725 22.2677 26.2832C22.7594 25.8915 23.1095 25.6081 23.893 25.6081C24.6764 25.6081 25.0514 25.9082 25.5265 26.2832C26.0766 26.725 26.7684 27.275 28.0685 27.275C29.3687 27.275 30.0522 26.725 30.6106 26.2832C31.0773 25.9082 31.4274 25.6331 32.1358 25.6081V24.1496C30.9023 24.1829 30.2355 24.708 29.7021 25.1414C29.227 25.5165 28.8603 25.8165 28.0685 25.8165C27.2768 25.8165 26.9267 25.5331 26.4433 25.1414C25.8849 24.6997 25.2015 24.1496 23.9013 24.1496C22.6011 24.1496 21.9177 24.6997 21.3676 25.1414C20.8759 25.5331 20.5258 25.8165 19.734 25.8165C18.9423 25.8165 18.6005 25.5331 18.1088 25.1497C17.5671 24.7163 16.9003 24.1829 15.6751 24.1579V25.6164C16.3836 25.6414 16.7253 25.9165 17.192 26.2832C17.7504 26.725 18.4339 27.2833 19.734 27.2833L19.7257 27.275Z" fill="#141515"/>
<path d="M28.0604 21.6492C27.277 21.6492 26.9186 21.3659 26.4352 20.9742C25.8768 20.5324 25.1933 19.9823 23.8932 19.9823C22.593 19.9823 21.9095 20.5324 21.3595 20.9742C20.8677 21.3659 20.5177 21.6492 19.7259 21.6492C18.9341 21.6492 18.5924 21.3658 18.1007 20.9824C17.5589 20.549 16.8922 20.0156 15.667 19.9906V21.4492C16.3754 21.4742 16.7171 21.7493 17.1839 22.116C17.7423 22.5577 18.4257 23.1161 19.7259 23.1161C21.0261 23.1161 21.7095 22.566 22.2679 22.1243C22.7596 21.7325 23.1097 21.4492 23.8932 21.4492C24.6766 21.4492 25.0516 21.7492 25.5267 22.1243C26.0768 22.566 26.7686 23.1161 28.0688 23.1161C29.3689 23.1161 30.0524 22.566 30.6108 22.1243C31.0775 21.7492 31.4276 21.4742 32.136 21.4492V19.9906C30.9025 20.024 30.2357 20.549 29.7023 20.9824C29.2272 21.3575 28.8605 21.6575 28.0688 21.6575L28.0604 21.6492Z" fill="#141515"/>
<defs>
<filter id="filter0_dd_13136_10997" x="0" y="0" width="48" height="52" filterUnits="userSpaceOnUse" color-interpolation-filters="sRGB">
<feFlood flood-opacity="0" result="BackgroundImageFix"/>
<feColorMatrix in="SourceAlpha" type="matrix" values="0 0 0 0 0 0 0 0 0 0 0 0 0 0 0 0 0 0 127 0" result="hardAlpha"/>
<feMorphology radius="2" operator="erode" in="SourceAlpha" result="effect1_dropShadow_13136_10997"/>
<feOffset dy="2"/>
<feGaussianBlur stdDeviation="2"/>
<feComposite in2="hardAlpha" operator="out"/>
<feColorMatrix type="matrix" values="0 0 0 0 0 0 0 0 0 0 0 0 0 0 0 0 0 0 0.06 0"/>
<feBlend mode="normal" in2="BackgroundImageFix" result="effect1_dropShadow_13136_10997"/>
<feColorMatrix in="SourceAlpha" type="matrix" values="0 0 0 0 0 0 0 0 0 0 0 0 0 0 0 0 0 0 127 0" result="hardAlpha"/>
<feMorphology radius="2" operator="erode" in="SourceAlpha" result="effect2_dropShadow_13136_10997"/>
<feOffset dy="4"/>
<feGaussianBlur stdDeviation="4"/>
<feComposite in2="hardAlpha" operator="out"/>
<feColorMatrix type="matrix" values="0 0 0 0 0 0 0 0 0 0 0 0 0 0 0 0 0 0 0.1 0"/>
<feBlend mode="normal" in2="effect1_dropShadow_13136_10997" result="effect2_dropShadow_13136_10997"/>
<feBlend mode="normal" in="SourceGraphic" in2="effect2_dropShadow_13136_10997" result="shape"/>
</filter>
</defs>
</svg>
