<svg width="48" height="52" viewBox="0 0 48 52" fill="none" xmlns="http://www.w3.org/2000/svg">
<g filter="url(#filter0_dd_13136_10995)">
<path d="M24 2C14.0589 2 6 10.0589 6 20C6 29.0307 12.6504 36.5081 21.3209 37.802L23.1019 41.4398C23.4676 42.1868 24.5324 42.1868 24.8981 41.4398L26.6791 37.802C35.3496 36.5081 42 29.0307 42 20C42 10.0589 33.9411 2 24 2Z" fill="white"/>
<path d="M21.7699 37.5821L21.6544 37.3462L21.3946 37.3074C12.9655 36.0496 6.5 28.7794 6.5 20C6.5 10.335 14.335 2.5 24 2.5C33.665 2.5 41.5 10.335 41.5 20C41.5 28.7794 35.0345 36.0496 26.6054 37.3074L26.3456 37.3462L26.2301 37.5821L24.4491 41.2199C24.2662 41.5935 23.7338 41.5935 23.5509 41.2199L21.7699 37.5821Z" stroke="#E6E7E7"/>
</g>
<path d="M25.6503 13.66C26.661 13.66 27.4803 12.8407 27.4803 11.83C27.4803 10.8193 26.661 10 25.6503 10C24.6396 10 23.8203 10.8193 23.8203 11.83C23.8203 12.8407 24.6396 13.66 25.6503 13.66Z" fill="#141515"/>
<path d="M28.18 19.1398L28.15 19.0898L26.49 16.5898C26.31 16.3298 26.07 16.1098 25.79 15.9698L24.36 15.2498C23.97 15.0498 23.52 15.0098 23.1 15.1098L19.91 15.9098C19.65 15.9698 19.42 16.0898 19.21 16.2598C19 16.4298 18.84 16.6298 18.72 16.8698L17 20.2998L18.48 21.0398L20.23 17.5398L22.8 16.8998L20.92 25.5898L20.86 25.6298L17.33 28.0598L18.2599 29.4198L21.79 26.9898C22.17 26.7298 22.44 26.3298 22.54 25.8698L23.11 23.2098L25.9 25.2998V25.3698L26.8 29.8198L28.42 29.4998L27.53 25.0398C27.44 24.5998 27.19 24.2098 26.83 23.9398L24.5699 22.2498L25.31 17.8198L26.7599 19.9998C26.9799 20.3298 27.32 20.5898 27.7 20.7198L30.21 21.5598L30.73 19.9998L28.16 19.1498L28.18 19.1398Z" fill="#141515"/>
<defs>
<filter id="filter0_dd_13136_10995" x="0" y="0" width="48" height="52" filterUnits="userSpaceOnUse" color-interpolation-filters="sRGB">
<feFlood flood-opacity="0" result="BackgroundImageFix"/>
<feColorMatrix in="SourceAlpha" type="matrix" values="0 0 0 0 0 0 0 0 0 0 0 0 0 0 0 0 0 0 127 0" result="hardAlpha"/>
<feMorphology radius="2" operator="erode" in="SourceAlpha" result="effect1_dropShadow_13136_10995"/>
<feOffset dy="2"/>
<feGaussianBlur stdDeviation="2"/>
<feComposite in2="hardAlpha" operator="out"/>
<feColorMatrix type="matrix" values="0 0 0 0 0 0 0 0 0 0 0 0 0 0 0 0 0 0 0.06 0"/>
<feBlend mode="normal" in2="BackgroundImageFix" result="effect1_dropShadow_13136_10995"/>
<feColorMatrix in="SourceAlpha" type="matrix" values="0 0 0 0 0 0 0 0 0 0 0 0 0 0 0 0 0 0 127 0" result="hardAlpha"/>
<feMorphology radius="2" operator="erode" in="SourceAlpha" result="effect2_dropShadow_13136_10995"/>
<feOffset dy="4"/>
<feGaussianBlur stdDeviation="4"/>
<feComposite in2="hardAlpha" operator="out"/>
<feColorMatrix type="matrix" values="0 0 0 0 0 0 0 0 0 0 0 0 0 0 0 0 0 0 0.1 0"/>
<feBlend mode="normal" in2="effect1_dropShadow_13136_10995" result="effect2_dropShadow_13136_10995"/>
<feBlend mode="normal" in="SourceGraphic" in2="effect2_dropShadow_13136_10995" result="shape"/>
</filter>
</defs>
</svg>
